<svg xmlns="http://www.w3.org/2000/svg" viewBox="0 0 512 512" fill="none">
  <rect width="512" height="512" rx="128" fill="url(#gradient)"/>
  <path d="M256 128C182.4 128 122 188.4 122 262C122 335.6 182.4 396 256 396C329.6 396 390 335.6 390 262C390 188.4 329.6 128 256 128ZM256 354C205.8 354 165 313.2 165 262C165 210.8 205.8 170 256 170C306.2 170 347 210.8 347 262C347 313.2 306.2 354 256 354Z" fill="white" fill-opacity="0.9"/>
  <path d="M256 196C221.8 196 194 223.8 194 258C194 292.2 221.8 320 256 320C290.2 320 318 292.2 318 258C318 223.8 290.2 196 256 196ZM256 288C238.4 288 224 273.6 224 258C224 242.4 238.4 228 256 228C273.6 228 288 242.4 288 258C288 273.6 273.6 288 256 288Z" fill="white"/>
  <defs>
    <linearGradient id="gradient" x1="0" y1="0" x2="512" y2="512" gradientUnits="userSpaceOnUse">
      <stop stop-color="#6366F1"/>
      <stop offset="1" stop-color="#9333EA"/>
    </linearGradient>
  </defs>
</svg>
